<svg xmlns="http://www.w3.org/2000/svg" xmlns:xlink="http://www.w3.org/1999/xlink" width="500" zoomAndPan="magnify" viewBox="0 0 375 374.999991" height="500" preserveAspectRatio="xMidYMid meet" version="1.0"><defs><g/><clipPath id="id1"><path d="M 109 156 L 271 156 L 271 209 L 109 209 Z M 109 156 " clip-rule="nonzero"/></clipPath><clipPath id="id2"><path d="M 129.863281 256.921875 L 103.839844 184.1875 L 245.070312 133.65625 L 271.097656 206.390625 Z M 129.863281 256.921875 " clip-rule="nonzero"/></clipPath><clipPath id="id3"><path d="M 129.863281 256.921875 L 103.839844 184.1875 L 245.070312 133.65625 L 271.097656 206.390625 Z M 129.863281 256.921875 " clip-rule="nonzero"/></clipPath></defs><g fill="#000000" fill-opacity="1"><g transform="translate(109.097639, 186.168725)"><g><path d="M -15.121094 -4.730469 C -15.519531 -4.722656 -15.878906 -5.066406 -15.886719 -5.488281 C -15.890625 -5.652344 -16.035156 -5.816406 -16.222656 -5.8125 C -16.410156 -5.808594 -16.574219 -5.640625 -16.570312 -5.476562 L -16.546875 -4.371094 C -16.546875 -4.371094 -16.523438 -4.371094 -16.523438 -4.371094 L -16.464844 -1.644531 C -16.464844 -1.644531 -16.488281 -1.644531 -16.488281 -1.644531 L -16.464844 -0.542969 C -16.460938 -0.355469 -16.292969 -0.214844 -16.105469 -0.21875 C -15.917969 -0.222656 -15.777344 -0.367188 -15.78125 -0.554688 C -15.792969 -0.980469 -15.445312 -1.316406 -15.046875 -1.324219 L -3.253906 -1.574219 C -0.292969 -1.640625 2.222656 -0.445312 2.253906 1.03125 C 2.257812 1.222656 2.425781 1.359375 2.613281 1.355469 C 2.800781 1.351562 2.941406 1.207031 2.9375 1.019531 C 2.863281 -2.363281 0.0546875 -5.054688 -3.328125 -4.980469 Z M -3.3125 -4.324219 C -0.964844 -4.375 1.066406 -2.914062 1.886719 -0.863281 C 0.785156 -1.757812 -1.105469 -2.304688 -3.269531 -2.257812 L -15.8125 -1.988281 L -15.855469 -4.054688 Z M -3.3125 -4.324219 "/></g></g></g><g fill="#000000" fill-opacity="1"><g transform="translate(108.618993, 177.458113)"><g><path d="M 1.078125 -11.105469 C 1.046875 -10.917969 1.164062 -10.757812 1.351562 -10.730469 C 1.535156 -10.699219 1.722656 -10.8125 1.75 -11 L 2.550781 -16.105469 C 2.578125 -16.269531 2.441406 -16.457031 2.253906 -16.484375 C 2.070312 -16.515625 1.902344 -16.375 1.878906 -16.210938 C 1.804688 -15.746094 1.320312 -15.230469 0.804688 -15.121094 L -14.609375 -11.332031 L -14.660156 -11.316406 C -14.6875 -11.296875 -14.710938 -11.300781 -14.738281 -11.28125 C -14.738281 -11.28125 -14.738281 -11.28125 -14.761719 -11.261719 C -14.785156 -11.265625 -14.789062 -11.242188 -14.816406 -11.222656 C -14.820312 -11.199219 -14.820312 -11.199219 -14.820312 -11.199219 C -14.84375 -11.203125 -14.847656 -11.179688 -14.851562 -11.15625 C -14.851562 -11.15625 -14.875 -11.160156 -14.878906 -11.136719 C -14.878906 -11.136719 -14.878906 -11.136719 -14.882812 -11.113281 C -14.886719 -11.089844 -14.910156 -11.070312 -14.914062 -11.046875 C -14.898438 -10.996094 -14.902344 -10.972656 -14.90625 -10.949219 C -14.90625 -10.949219 -14.910156 -10.925781 -14.910156 -10.925781 C -14.890625 -10.898438 -14.894531 -10.875 -14.875 -10.851562 C -14.855469 -10.824219 -14.859375 -10.800781 -14.839844 -10.773438 C -14.839844 -10.773438 -14.816406 -10.769531 -14.816406 -10.769531 C -14.796875 -10.742188 -14.777344 -10.714844 -14.753906 -10.710938 L -13.671875 -10.042969 L -11.480469 -8.675781 L -1.199219 -2.351562 C -0.746094 -2.066406 -0.4375 -1.449219 -0.511719 -0.984375 C -0.539062 -0.796875 -0.421875 -0.636719 -0.238281 -0.609375 C -0.0507812 -0.578125 0.132812 -0.691406 0.160156 -0.878906 L 0.5 -3.039062 C 0.53125 -3.222656 0.390625 -3.386719 0.203125 -3.417969 C 0.0195312 -3.445312 -0.144531 -3.328125 -0.171875 -3.144531 C -0.191406 -3.027344 -0.234375 -2.890625 -0.367188 -2.816406 C -0.492188 -2.765625 -0.65625 -2.789062 -0.851562 -2.917969 L -1.523438 -3.332031 C -3.800781 -4.878906 -5.054688 -7.5 -4.84375 -10.203125 L 0.5 -11.527344 C 0.726562 -11.589844 0.886719 -11.5625 0.992188 -11.476562 C 1.09375 -11.363281 1.09375 -11.222656 1.078125 -11.105469 Z M 1.28125 -12.40625 L 0.738281 -12.277344 L 0.339844 -12.171875 L -11.261719 -9.332031 L -13.707031 -10.855469 L 1.632812 -14.632812 Z M -4.058594 -4.894531 L -10.457031 -8.847656 L -5.535156 -10.050781 C -5.636719 -8.1875 -5.085938 -6.386719 -4.058594 -4.894531 Z M -4.058594 -4.894531 "/></g></g></g><g fill="#000000" fill-opacity="1"><g transform="translate(111.721035, 158.949227)"><g><path d="M -0.84375 -9.757812 L 4.246094 -10.628906 C 4.359375 -10.65625 4.4375 -10.726562 4.484375 -10.835938 L 5.722656 -13.832031 C 5.722656 -13.832031 5.742188 -13.820312 5.742188 -13.820312 L 6.167969 -14.84375 C 6.238281 -15.015625 6.140625 -15.210938 5.964844 -15.28125 C 5.792969 -15.351562 5.609375 -15.277344 5.535156 -15.101562 C 5.355469 -14.667969 4.734375 -14.214844 4.144531 -14.078125 L -0.402344 -13.289062 C -0.777344 -15.273438 -2.109375 -16.96875 -3.996094 -17.75 C -6.992188 -18.992188 -10.484375 -17.5625 -11.746094 -14.574219 C -11.753906 -14.550781 -11.785156 -14.539062 -11.792969 -14.515625 C -11.792969 -14.515625 -13.394531 -10.652344 -13.394531 -10.652344 L -14.855469 -7.113281 C -14.929688 -6.941406 -14.832031 -6.746094 -14.65625 -6.675781 C -14.484375 -6.601562 -14.300781 -6.679688 -14.226562 -6.851562 C -14.066406 -7.242188 -13.613281 -7.414062 -13.246094 -7.261719 L -0.675781 -2.058594 C -0.304688 -1.90625 -0.105469 -1.46875 -0.265625 -1.078125 C -0.339844 -0.902344 -0.261719 -0.71875 -0.0898438 -0.648438 C 0.0859375 -0.574219 0.269531 -0.652344 0.339844 -0.824219 L 2.21875 -5.363281 C 2.289062 -5.535156 2.222656 -5.742188 2.050781 -5.8125 C 1.875 -5.886719 1.683594 -5.789062 1.609375 -5.613281 C 1.457031 -5.246094 0.996094 -5.054688 0.628906 -5.207031 L -2.238281 -6.394531 Z M -0.570312 -10.484375 C -0.367188 -11.164062 -0.292969 -11.894531 -0.324219 -12.621094 L 4.171875 -13.402344 C 4.195312 -13.394531 4.203125 -13.417969 4.203125 -13.417969 L 4.878906 -13.519531 L 3.945312 -11.261719 Z M -4.257812 -17.121094 C -2.5 -16.394531 -1.246094 -14.753906 -1.035156 -12.863281 C -1.003906 -12.570312 -0.972656 -12.277344 -0.984375 -12.003906 C -1.007812 -12.011719 -1.019531 -12.042969 -1.03125 -12.074219 C -1.042969 -12.105469 -1.078125 -12.144531 -1.089844 -12.175781 C -1.105469 -12.207031 -1.136719 -12.246094 -1.152344 -12.277344 C -1.1875 -12.316406 -1.199219 -12.347656 -1.234375 -12.386719 C -1.265625 -12.425781 -1.292969 -12.488281 -1.347656 -12.535156 C -1.363281 -12.566406 -1.375 -12.597656 -1.410156 -12.636719 C -1.441406 -12.675781 -1.464844 -12.683594 -1.5 -12.726562 C -1.535156 -12.765625 -1.546875 -12.796875 -1.582031 -12.835938 C -1.59375 -12.867188 -1.617188 -12.875 -1.648438 -12.914062 C -2.441406 -13.828125 -3.660156 -14.636719 -5.046875 -15.210938 C -6.980469 -16.007812 -8.867188 -16.179688 -10.175781 -15.78125 C -8.722656 -17.390625 -6.363281 -17.992188 -4.257812 -17.121094 Z M -5.300781 -14.601562 C -3.996094 -14.0625 -2.890625 -13.300781 -2.164062 -12.464844 C -2.164062 -12.464844 -2.164062 -12.464844 -2.144531 -12.457031 C -1.433594 -11.65625 -1.15625 -10.851562 -1.375 -10.257812 C -1.375 -10.257812 -1.386719 -10.234375 -1.394531 -10.214844 L -1.410156 -10.171875 L -2.867188 -6.652344 L -12.636719 -10.695312 L -11.164062 -14.257812 C -11.15625 -14.277344 -11.144531 -14.300781 -11.144531 -14.300781 C -11.144531 -14.300781 -11.144531 -14.300781 -11.136719 -14.320312 C -10.558594 -15.53125 -7.882812 -15.671875 -5.300781 -14.601562 Z M -13.679688 -8.175781 L -12.890625 -10.089844 L 1.070312 -4.3125 L 0.28125 -2.402344 Z M -13.679688 -8.175781 "/></g></g></g><g fill="#000000" fill-opacity="1"><g transform="translate(118.990496, 141.883422)"><g><path d="M -8.625 -16.101562 L -10.539062 -13.453125 L -12.785156 -10.351562 C -12.894531 -10.199219 -12.863281 -10 -12.710938 -9.890625 C -12.558594 -9.78125 -12.359375 -9.8125 -12.25 -9.964844 C -12.003906 -10.308594 -11.523438 -10.367188 -11.199219 -10.132812 L -0.179688 -2.160156 C 0.144531 -1.925781 0.238281 -1.453125 -0.0078125 -1.109375 C -0.121094 -0.957031 -0.0898438 -0.761719 0.0625 -0.648438 C 0.214844 -0.539062 0.433594 -0.558594 0.542969 -0.710938 L 4.703125 -6.460938 C 7.359375 -10.132812 6.535156 -15.285156 2.859375 -17.941406 C -0.816406 -20.601562 -5.964844 -19.773438 -8.625 -16.101562 Z M 4.148438 -6.859375 L 2.429688 -4.480469 L -9.8125 -13.335938 L -8.089844 -15.714844 C -6.535156 -17.867188 -2.527344 -17.632812 0.863281 -15.183594 C 4.230469 -12.746094 5.707031 -9.007812 4.148438 -6.859375 Z M -11.410156 -11.125 L -10.210938 -12.78125 L 2.027344 -3.925781 L 0.832031 -2.269531 Z M 5.367188 -9.542969 C 5.097656 -11.65625 3.609375 -14.007812 1.246094 -15.714844 C -1.132812 -17.4375 -3.832031 -18.113281 -5.921875 -17.710938 C -3.410156 -19.257812 -0.0898438 -19.238281 2.460938 -17.390625 C 4.992188 -15.558594 6.050781 -12.414062 5.367188 -9.542969 Z M 5.367188 -9.542969 "/></g></g></g><g fill="#000000" fill-opacity="1"><g transform="translate(130.450946, 127.0782)"><g><path d="M -6.808594 -15.359375 C -6.675781 -15.488281 -6.65625 -15.707031 -6.785156 -15.839844 C -6.917969 -15.976562 -7.148438 -15.980469 -7.285156 -15.847656 L -10.808594 -12.429688 C -10.945312 -12.296875 -10.929688 -12.082031 -10.800781 -11.949219 C -10.667969 -11.8125 -10.46875 -11.808594 -10.335938 -11.941406 C -10.03125 -12.234375 -9.550781 -12.210938 -9.273438 -11.925781 L 0.199219 -2.15625 C 0.476562 -1.871094 0.488281 -1.386719 0.183594 -1.09375 C 0.046875 -0.964844 0.046875 -0.765625 0.175781 -0.628906 C 0.308594 -0.492188 0.523438 -0.472656 0.65625 -0.605469 L 4.183594 -4.023438 C 4.316406 -4.15625 4.320312 -4.386719 4.191406 -4.523438 C 4.058594 -4.65625 3.84375 -4.644531 3.707031 -4.511719 C 3.421875 -4.234375 2.921875 -4.242188 2.644531 -4.527344 L -6.824219 -14.296875 C -7.105469 -14.582031 -7.097656 -15.082031 -6.808594 -15.359375 Z M -9.304688 -12.9375 L -7.820312 -14.378906 L 2.695312 -3.53125 L 1.210938 -2.089844 Z M -9.304688 -12.9375 "/></g></g></g><g fill="#000000" fill-opacity="1"><g transform="translate(136.573764, 120.816236)"><g><path d="M 3.316406 -22.183594 L 1.511719 -20.949219 C 1.359375 -20.84375 1.335938 -20.628906 1.441406 -20.472656 C 1.546875 -20.320312 1.742188 -20.28125 1.898438 -20.386719 C 2.246094 -20.625 2.71875 -20.519531 2.941406 -20.191406 C 2.941406 -20.191406 2.957031 -20.171875 2.957031 -20.171875 L 9.632812 -10.390625 L -4.640625 -16.546875 C -4.734375 -16.597656 -4.859375 -16.570312 -4.953125 -16.503906 C -4.953125 -16.503906 -7.632812 -14.675781 -7.632812 -14.675781 L -8.523438 -14.066406 C -8.679688 -13.960938 -8.71875 -13.765625 -8.609375 -13.609375 C -8.503906 -13.457031 -8.308594 -13.417969 -8.152344 -13.523438 C -7.960938 -13.65625 -7.695312 -13.726562 -7.386719 -13.734375 L 0.5625 -2.09375 C 0.789062 -1.761719 0.714844 -1.285156 0.367188 -1.046875 C 0.210938 -0.941406 0.175781 -0.746094 0.28125 -0.589844 C 0.386719 -0.433594 0.59375 -0.378906 0.75 -0.484375 L 2.554688 -1.714844 C 2.710938 -1.824219 2.734375 -2.039062 2.628906 -2.191406 C 2.523438 -2.347656 2.328125 -2.386719 2.171875 -2.277344 C 1.820312 -2.039062 1.351562 -2.144531 1.125 -2.476562 L -6.492188 -13.632812 C -6.460938 -13.628906 -6.429688 -13.621094 -6.382812 -13.597656 L 9.566406 -6.703125 C 9.675781 -6.664062 9.792969 -6.660156 9.890625 -6.726562 L 11.695312 -7.957031 C 11.851562 -8.0625 11.894531 -8.292969 11.789062 -8.449219 L 3.503906 -20.574219 C 3.265625 -20.925781 3.351562 -21.382812 3.703125 -21.621094 C 3.859375 -21.726562 3.894531 -21.921875 3.789062 -22.078125 C 3.683594 -22.234375 3.472656 -22.289062 3.316406 -22.183594 Z M -6.113281 -14.207031 L -6.160156 -14.230469 L -6.757812 -14.476562 L -4.738281 -15.855469 L 10.351562 -9.34375 L 11.039062 -8.335938 L 9.660156 -7.394531 Z M -6.113281 -14.207031 "/></g></g></g><g fill="#000000" fill-opacity="1"><g transform="translate(151.491966, 110.990056)"><g><path d="M 2.5625 -18.066406 C 4.328125 -18.785156 6.347656 -17.933594 7.066406 -16.171875 C 7.136719 -15.996094 7.320312 -15.917969 7.492188 -15.988281 C 7.667969 -16.0625 7.746094 -16.246094 7.675781 -16.417969 L 6.25 -19.921875 C 6.175781 -20.097656 5.984375 -20.195312 5.808594 -20.125 L -5.375 -15.570312 C -5.550781 -15.5 -5.617188 -15.292969 -5.546875 -15.121094 C -5.476562 -14.945312 -5.292969 -14.867188 -5.117188 -14.941406 C -4.726562 -15.097656 -4.289062 -14.898438 -4.136719 -14.527344 L 0.992188 -1.925781 C 1.140625 -1.554688 0.96875 -1.105469 0.578125 -0.945312 C 0.40625 -0.875 0.328125 -0.691406 0.398438 -0.515625 C 0.46875 -0.34375 0.660156 -0.242188 0.835938 -0.316406 L 12.023438 -4.871094 C 12.195312 -4.941406 12.265625 -5.144531 12.195312 -5.320312 L 10.765625 -8.824219 C 10.695312 -8.996094 10.511719 -9.074219 10.339844 -9.003906 C 10.164062 -8.933594 10.085938 -8.75 10.15625 -8.574219 C 10.875 -6.8125 10.023438 -4.792969 8.261719 -4.074219 L 4.429688 -2.515625 L 1.703125 -9.21875 L 3.769531 -10.058594 C 4.160156 -10.21875 4.589844 -10.039062 4.75 -9.644531 C 4.820312 -9.472656 5.011719 -9.371094 5.1875 -9.445312 C 5.359375 -9.515625 5.453125 -9.730469 5.378906 -9.902344 L 4.554688 -11.925781 C 4.484375 -12.101562 4.28125 -12.167969 4.105469 -12.097656 C 3.933594 -12.027344 3.855469 -11.84375 3.925781 -11.671875 C 4.085938 -11.277344 3.902344 -10.851562 3.511719 -10.691406 L 1.445312 -9.847656 L -1.265625 -16.507812 Z M 6.214844 -18.261719 C 5.734375 -18.570312 5.203125 -18.8125 4.652344 -18.917969 L 5.761719 -19.371094 Z M -3.792969 -15.480469 L -1.898438 -16.25 C -1.898438 -16.25 0.945312 -9.265625 0.945312 -9.265625 L 3.800781 -2.257812 L 1.90625 -1.488281 Z M 11.007812 -6.488281 L 11.460938 -5.375 L 10.351562 -4.925781 C 10.671875 -5.382812 10.882812 -5.925781 11.007812 -6.488281 Z M 11.007812 -6.488281 "/></g></g></g><g fill="#000000" fill-opacity="1"><g transform="translate(166.150025, 105.276387)"><g><path d="M 6.578125 -10.851562 L 2.472656 -11.144531 C 1.253906 -11.265625 0.28125 -12.175781 0.046875 -13.371094 C -0.253906 -14.894531 0.726562 -16.355469 2.25 -16.65625 L 2.988281 -16.800781 C 5.246094 -17.246094 7.453125 -15.765625 7.898438 -13.507812 C 7.933594 -13.324219 8.128906 -13.195312 8.289062 -13.226562 C 8.472656 -13.261719 8.605469 -13.457031 8.566406 -13.640625 L 7.722656 -17.929688 C 7.6875 -18.113281 7.496094 -18.21875 7.3125 -18.183594 C 7.152344 -18.152344 7.015625 -17.980469 7.054688 -17.796875 L 7.132812 -17.402344 C 7.1875 -17.128906 7.003906 -16.828125 6.707031 -16.769531 C 6.589844 -16.746094 6.4375 -16.789062 6.332031 -16.839844 C 6.304688 -16.859375 6.304688 -16.859375 6.277344 -16.875 C 5.273438 -17.46875 4.078125 -17.710938 2.855469 -17.472656 L 2.117188 -17.324219 C -0.535156 -16.804688 -2.230469 -14.242188 -1.714844 -11.613281 C -1.296875 -9.492188 0.484375 -7.878906 2.625 -7.703125 L 6.730469 -7.410156 C 7.949219 -7.292969 8.921875 -6.378906 9.15625 -5.183594 C 9.457031 -3.660156 8.476562 -2.199219 6.953125 -1.898438 L 5.226562 -1.558594 C 2.941406 -1.105469 0.734375 -2.585938 0.289062 -4.847656 C 0.253906 -5.03125 0.0820312 -5.164062 -0.101562 -5.128906 C -0.285156 -5.09375 -0.390625 -4.902344 -0.355469 -4.71875 L 0.488281 -0.433594 C 0.527344 -0.246094 0.691406 -0.136719 0.875 -0.171875 C 1.058594 -0.210938 1.171875 -0.375 1.136719 -0.558594 L 1.058594 -0.949219 C 1.003906 -1.226562 1.183594 -1.527344 1.484375 -1.585938 C 1.621094 -1.613281 1.75 -1.566406 1.878906 -1.519531 C 1.882812 -1.496094 1.90625 -1.5 1.910156 -1.480469 C 2.914062 -0.886719 4.113281 -0.644531 5.355469 -0.886719 L 7.085938 -1.230469 C 9.714844 -1.746094 11.4375 -4.3125 10.917969 -6.941406 C 10.5 -9.0625 8.722656 -10.675781 6.578125 -10.851562 Z M 7.339844 -16.34375 L 7.421875 -15.929688 C 7.332031 -16.03125 7.238281 -16.132812 7.152344 -16.210938 C 7.214844 -16.246094 7.277344 -16.308594 7.339844 -16.34375 Z M 0.847656 -2.011719 L 0.765625 -2.425781 C 0.859375 -2.324219 0.949219 -2.222656 1.0625 -2.148438 C 0.972656 -2.109375 0.914062 -2.046875 0.847656 -2.011719 Z M 9.820312 -3.996094 C 9.90625 -4.417969 9.917969 -4.851562 9.824219 -5.3125 C 9.53125 -6.8125 8.308594 -7.914062 6.789062 -8.089844 L 2.6875 -8.359375 C 0.835938 -8.523438 -0.710938 -9.917969 -1.070312 -11.738281 C -1.265625 -12.730469 -1.078125 -13.726562 -0.617188 -14.558594 C -0.703125 -14.136719 -0.714844 -13.703125 -0.621094 -13.242188 C -0.328125 -11.742188 0.894531 -10.644531 2.417969 -10.464844 L 6.515625 -10.195312 C 8.367188 -10.03125 9.914062 -8.636719 10.273438 -6.816406 C 10.46875 -5.824219 10.28125 -4.828125 9.820312 -3.996094 Z M 9.820312 -3.996094 "/></g></g></g><g fill="#000000" fill-opacity="1"><g transform="translate(180.640521, 102.759095)"><g/></g></g><g fill="#000000" fill-opacity="1"><g transform="translate(191.001852, 102.195518)"><g><path d="M 10.355469 -15.042969 L 7.128906 -15.53125 L 3.339844 -16.105469 C 3.15625 -16.132812 2.992188 -16.015625 2.964844 -15.832031 C 2.9375 -15.644531 3.054688 -15.484375 3.242188 -15.457031 C 3.660156 -15.390625 3.933594 -14.996094 3.871094 -14.601562 L 1.835938 -1.148438 C 1.777344 -0.753906 1.398438 -0.453125 0.980469 -0.515625 C 0.796875 -0.546875 0.636719 -0.425781 0.605469 -0.242188 C 0.578125 -0.0546875 0.695312 0.128906 0.878906 0.15625 L 7.894531 1.21875 C 12.378906 1.898438 16.578125 -1.199219 17.257812 -5.683594 C 17.9375 -10.167969 14.839844 -14.367188 10.355469 -15.042969 Z M 7.996094 0.542969 L 5.09375 0.105469 L 7.355469 -14.832031 L 10.257812 -14.394531 C 12.882812 -13.996094 14.515625 -10.328125 13.890625 -6.191406 C 13.265625 -2.078125 10.621094 0.941406 7.996094 0.542969 Z M 4.660156 -15.242188 L 6.679688 -14.933594 L 4.417969 0.00390625 L 2.398438 -0.300781 Z M 10.941406 0.398438 C 12.695312 -0.8125 14.105469 -3.210938 14.539062 -6.09375 C 14.980469 -8.996094 14.34375 -11.707031 13.027344 -13.378906 C 15.554688 -11.859375 17.054688 -8.898438 16.585938 -5.785156 C 16.117188 -2.695312 13.808594 -0.3125 10.941406 0.398438 Z M 10.941406 0.398438 "/></g></g></g><g fill="#000000" fill-opacity="1"><g transform="translate(209.187291, 105.286576)"><g><path d="M 14.222656 -11.429688 C 16 -10.75 16.894531 -8.746094 16.210938 -6.96875 C 16.144531 -6.792969 16.226562 -6.613281 16.402344 -6.542969 C 16.578125 -6.476562 16.757812 -6.558594 16.828125 -6.734375 L 18.179688 -10.265625 C 18.25 -10.441406 18.175781 -10.644531 18 -10.714844 L 6.722656 -15.039062 C 6.546875 -15.105469 6.359375 -15.003906 6.289062 -14.828125 C 6.222656 -14.652344 6.304688 -14.46875 6.480469 -14.402344 C 6.875 -14.25 7.054688 -13.804688 6.914062 -13.429688 L 2.039062 -0.726562 C 1.898438 -0.355469 1.464844 -0.144531 1.070312 -0.292969 C 0.894531 -0.363281 0.710938 -0.28125 0.644531 -0.105469 C 0.578125 0.0703125 0.648438 0.273438 0.824219 0.339844 L 12.101562 4.667969 C 12.277344 4.734375 12.46875 4.628906 12.535156 4.457031 L 13.890625 0.921875 C 13.957031 0.746094 13.875 0.566406 13.699219 0.496094 C 13.523438 0.429688 13.34375 0.511719 13.277344 0.6875 C 12.59375 2.464844 10.589844 3.355469 8.8125 2.675781 L 4.953125 1.195312 L 7.542969 -5.5625 L 9.628906 -4.761719 C 10.023438 -4.613281 10.210938 -4.1875 10.0625 -3.792969 C 9.992188 -3.617188 10.066406 -3.414062 10.242188 -3.34375 C 10.417969 -3.277344 10.628906 -3.371094 10.699219 -3.546875 L 11.480469 -5.589844 C 11.546875 -5.765625 11.445312 -5.953125 11.269531 -6.023438 C 11.09375 -6.089844 10.910156 -6.007812 10.84375 -5.832031 C 10.691406 -5.4375 10.265625 -5.25 9.871094 -5.398438 L 7.789062 -6.199219 L 10.363281 -12.914062 Z M 17.019531 -9.074219 C 16.882812 -9.632812 16.660156 -10.171875 16.332031 -10.625 L 17.449219 -10.195312 Z M 7.816406 -13.886719 L 9.726562 -13.15625 C 9.726562 -13.15625 7.027344 -6.113281 7.027344 -6.113281 L 4.316406 0.949219 L 2.40625 0.21875 Z M 12.46875 2.792969 L 12.039062 3.914062 L 10.921875 3.484375 C 11.46875 3.367188 11.992188 3.113281 12.46875 2.792969 Z M 12.46875 2.792969 "/></g></g></g><g fill="#000000" fill-opacity="1"><g transform="translate(223.883211, 111.34562)"><g/></g></g><g fill="#000000" fill-opacity="1"><g transform="translate(232.920144, 116.414944)"><g><path d="M 11.078125 -11.253906 C 11.429688 -10.945312 11.589844 -10.273438 11.421875 -9.761719 L 6.367188 5.28125 L 6.355469 5.332031 C 6.339844 5.351562 6.34375 5.382812 6.34375 5.417969 C 6.34375 5.417969 6.34375 5.417969 6.328125 5.433594 C 6.332031 5.46875 6.347656 5.484375 6.351562 5.515625 C 6.351562 5.550781 6.351562 5.550781 6.371094 5.566406 C 6.371094 5.566406 6.371094 5.597656 6.371094 5.597656 C 6.371094 5.597656 6.390625 5.613281 6.390625 5.613281 C 6.40625 5.628906 6.410156 5.664062 6.445312 5.695312 C 6.464844 5.710938 6.496094 5.707031 6.53125 5.738281 C 6.566406 5.734375 6.582031 5.75 6.632812 5.765625 C 6.667969 5.761719 6.699219 5.761719 6.734375 5.757812 C 6.765625 5.757812 6.78125 5.738281 6.8125 5.738281 L 8.847656 4.738281 L 10.269531 4.046875 L 21.132812 -1.234375 C 21.597656 -1.480469 22.304688 -1.390625 22.65625 -1.082031 C 22.78125 -0.972656 22.996094 -0.96875 23.121094 -1.113281 C 23.246094 -1.253906 23.230469 -1.484375 23.105469 -1.59375 C 23.105469 -1.59375 22.277344 -2.324219 22.277344 -2.324219 L 21.464844 -3.035156 C 21.324219 -3.160156 21.09375 -3.144531 20.96875 -3.003906 C 20.84375 -2.863281 20.875 -2.648438 21.015625 -2.523438 C 21.085938 -2.460938 21.195312 -2.335938 21.167969 -2.199219 C 21.144531 -2.066406 21.035156 -1.941406 20.828125 -1.847656 L 10.691406 3.105469 L 14.277344 -7.597656 C 14.363281 -7.804688 14.472656 -7.929688 14.601562 -7.96875 C 14.734375 -8.011719 14.855469 -7.9375 14.941406 -7.859375 C 15.085938 -7.734375 15.285156 -7.746094 15.40625 -7.890625 C 15.53125 -8.03125 15.535156 -8.246094 15.394531 -8.371094 L 11.527344 -11.765625 C 11.386719 -11.890625 11.171875 -11.859375 11.046875 -11.71875 C 10.921875 -11.578125 10.9375 -11.378906 11.078125 -11.253906 Z M 7.25 4.777344 L 12.054688 -9.554688 L 12.277344 -10.199219 L 13.953125 -8.726562 L 9.832031 3.511719 Z M 7.25 4.777344 "/></g></g></g><g fill="#000000" fill-opacity="1"><g transform="translate(246.856674, 129.141156)"><g><path d="M 18.148438 -1.890625 C 19.273438 -0.351562 18.9375 1.8125 17.402344 2.9375 C 17.25 3.046875 17.21875 3.246094 17.328125 3.398438 C 17.441406 3.550781 17.636719 3.578125 17.789062 3.46875 L 20.84375 1.234375 C 20.996094 1.125 21.042969 0.914062 20.933594 0.761719 L 13.804688 -8.988281 C 13.695312 -9.140625 13.476562 -9.15625 13.324219 -9.046875 C 13.175781 -8.933594 13.144531 -8.738281 13.253906 -8.585938 C 13.503906 -8.242188 13.414062 -7.769531 13.089844 -7.535156 L 2.109375 0.496094 C 1.785156 0.730469 1.308594 0.675781 1.058594 0.332031 C 0.945312 0.179688 0.75 0.148438 0.597656 0.261719 C 0.445312 0.371094 0.398438 0.582031 0.507812 0.734375 L 7.636719 10.484375 C 7.746094 10.636719 7.964844 10.652344 8.117188 10.542969 L 11.167969 8.308594 C 11.320312 8.199219 11.351562 8 11.242188 7.847656 C 11.128906 7.699219 10.933594 7.667969 10.78125 7.777344 C 9.246094 8.902344 7.078125 8.566406 5.953125 7.027344 L 3.511719 3.691406 L 9.355469 -0.582031 L 10.671875 1.21875 C 10.921875 1.5625 10.851562 2.019531 10.507812 2.269531 C 10.359375 2.382812 10.308594 2.59375 10.417969 2.746094 C 10.53125 2.894531 10.761719 2.933594 10.910156 2.820312 L 12.675781 1.53125 C 12.828125 1.421875 12.84375 1.203125 12.734375 1.050781 C 12.621094 0.902344 12.425781 0.871094 12.273438 0.980469 C 11.933594 1.230469 11.472656 1.160156 11.222656 0.816406 L 9.90625 -0.984375 L 15.710938 -5.226562 Z M 19.222656 1.605469 C 19.40625 1.0625 19.511719 0.492188 19.480469 -0.0703125 L 20.1875 0.898438 Z M 14.101562 -7.429688 L 15.308594 -5.777344 C 15.308594 -5.777344 9.21875 -1.324219 9.21875 -1.324219 L 3.109375 3.140625 L 1.902344 1.488281 Z M 8.960938 9.109375 L 7.992188 9.816406 L 7.285156 8.847656 C 7.808594 9.046875 8.386719 9.121094 8.960938 9.109375 Z M 8.960938 9.109375 "/></g></g></g><g fill="#000000" fill-opacity="1"><g transform="translate(255.971617, 141.907948)"><g><path d="M 9.464844 9.917969 C 9.386719 9.75 9.199219 9.679688 9.027344 9.757812 C 7.300781 10.554688 5.242188 9.796875 4.445312 8.066406 L 2.714844 4.3125 L 15.75 -1.699219 C 16.113281 -1.867188 16.582031 -1.695312 16.75 -1.332031 C 16.828125 -1.160156 17.023438 -1.070312 17.195312 -1.148438 C 17.367188 -1.230469 17.445312 -1.445312 17.367188 -1.617188 L 15.308594 -6.078125 C 15.230469 -6.246094 15.023438 -6.308594 14.851562 -6.226562 C 14.683594 -6.148438 14.613281 -5.960938 14.691406 -5.792969 C 14.867188 -5.40625 14.6875 -4.960938 14.324219 -4.792969 L 1.96875 0.902344 C 1.605469 1.070312 1.148438 0.917969 0.972656 0.535156 C 0.894531 0.363281 0.707031 0.296875 0.535156 0.375 C 0.363281 0.453125 0.273438 0.648438 0.351562 0.820312 L 5.410156 11.789062 C 5.488281 11.960938 5.699219 12.019531 5.867188 11.941406 L 9.304688 10.355469 C 9.472656 10.277344 9.542969 10.089844 9.464844 9.917969 Z M 6.980469 10.703125 L 5.890625 11.203125 L 5.390625 10.117188 C 5.863281 10.414062 6.414062 10.601562 6.980469 10.703125 Z M 15.292969 -4.488281 L 16.148438 -2.632812 L 2.425781 3.691406 L 1.570312 1.835938 Z M 15.292969 -4.488281 "/></g></g></g><g fill="#000000" fill-opacity="1"><g transform="translate(262.379153, 156.226373)"><g><path d="M 17.460938 5.300781 C 17.902344 7.152344 16.75 9.019531 14.898438 9.460938 C 14.714844 9.503906 14.609375 9.671875 14.652344 9.855469 C 14.695312 10.039062 14.867188 10.144531 15.050781 10.101562 L 18.730469 9.226562 C 18.914062 9.183594 19.039062 9.007812 18.996094 8.824219 L 16.210938 -2.925781 C 16.167969 -3.109375 15.972656 -3.207031 15.792969 -3.164062 C 15.609375 -3.121094 15.503906 -2.953125 15.546875 -2.769531 C 15.644531 -2.359375 15.378906 -1.957031 14.988281 -1.863281 L 1.75 1.273438 C 1.363281 1.367188 0.945312 1.128906 0.847656 0.71875 C 0.804688 0.535156 0.632812 0.429688 0.449219 0.472656 C 0.265625 0.515625 0.140625 0.691406 0.183594 0.875 L 2.96875 12.625 C 3.011719 12.808594 3.207031 12.90625 3.390625 12.863281 L 7.070312 11.992188 C 7.253906 11.949219 7.355469 11.777344 7.3125 11.597656 C 7.269531 11.414062 7.101562 11.308594 6.917969 11.351562 C 5.066406 11.789062 3.199219 10.640625 2.761719 8.789062 L 1.804688 4.765625 L 8.847656 3.09375 L 9.363281 5.265625 C 9.460938 5.675781 9.214844 6.074219 8.804688 6.171875 C 8.621094 6.214844 8.496094 6.390625 8.539062 6.574219 C 8.582031 6.753906 8.777344 6.878906 8.960938 6.835938 L 11.089844 6.328125 C 11.269531 6.285156 11.371094 6.09375 11.328125 5.910156 C 11.285156 5.726562 11.113281 5.625 10.929688 5.667969 C 10.519531 5.765625 10.125 5.519531 10.027344 5.109375 L 9.511719 2.9375 L 16.507812 1.277344 Z M 17.09375 8.9375 C 17.472656 8.511719 17.792969 8.023438 17.980469 7.496094 L 18.257812 8.664062 Z M 15.878906 -1.375 L 16.351562 0.613281 C 16.351562 0.613281 9.011719 2.355469 9.011719 2.355469 L 1.648438 4.101562 L 1.175781 2.113281 Z M 4.722656 11.871094 L 3.558594 12.148438 L 3.28125 10.984375 C 3.6875 11.371094 4.191406 11.660156 4.722656 11.871094 Z M 4.722656 11.871094 "/></g></g></g><g fill="#000000" fill-opacity="1"><g transform="translate(265.876789, 171.472832)"><g><path d="M 4.820312 13.996094 C 4.8125 13.808594 4.667969 13.648438 4.480469 13.652344 C 2.578125 13.707031 0.984375 12.195312 0.933594 10.292969 L 0.785156 4.726562 L 16.3125 13.96875 C 16.410156 14.039062 16.550781 14.035156 16.640625 13.960938 C 16.757812 13.910156 16.824219 13.792969 16.820312 13.675781 L 16.734375 10.433594 C 16.734375 10.433594 16.710938 10.433594 16.710938 10.433594 L 16.441406 0.449219 C 16.4375 0.261719 16.292969 0.125 16.105469 0.128906 L 12.324219 0.234375 C 12.136719 0.238281 12 0.382812 12.003906 0.570312 C 12.007812 0.757812 12.152344 0.894531 12.339844 0.890625 C 14.242188 0.839844 15.835938 2.347656 15.886719 4.25 L 16.039062 9.839844 L 0.507812 0.597656 C 0.414062 0.53125 0.273438 0.535156 0.179688 0.582031 C 0.0664062 0.65625 -0.00390625 0.777344 0 0.894531 L 0.355469 14.117188 C 0.363281 14.304688 0.53125 14.441406 0.71875 14.4375 L 4.5 14.335938 C 4.6875 14.332031 4.824219 14.183594 4.820312 13.996094 Z M 14.597656 0.828125 L 15.792969 0.796875 L 15.828125 1.996094 C 15.507812 1.535156 15.074219 1.121094 14.597656 0.828125 Z M 16.058594 10.640625 L 16.125 13.082031 L 0.765625 3.929688 L 0.699219 1.484375 Z M 0.996094 12.550781 C 1.3125 13.035156 1.746094 13.421875 2.226562 13.714844 L 1.027344 13.746094 Z M 0.996094 12.550781 "/></g></g></g><g fill="#000000" fill-opacity="1"><g transform="translate(113.083664, 249.377993)"><g><path d="M 11.589844 -2.957031 C 12.53125 -1.996094 13.113281 -0.667969 13.050781 0.785156 C 13.050781 0.785156 13.050781 0.808594 13.0625 0.820312 C 13.050781 0.828125 13.0625 0.839844 13.0625 0.839844 C 13.070312 0.851562 13.058594 0.863281 13.058594 0.863281 C 13.070312 0.875 13.070312 0.875 13.082031 0.886719 C 13.082031 0.886719 13.09375 0.898438 13.082031 0.90625 C 13.089844 0.917969 13.101562 0.929688 13.113281 0.941406 C 13.121094 0.953125 13.132812 0.964844 13.144531 0.976562 C 13.15625 0.964844 13.167969 0.976562 13.167969 0.976562 C 13.167969 0.976562 13.175781 0.988281 13.175781 0.988281 C 13.1875 1 13.199219 0.988281 13.210938 1 C 13.210938 1 13.21875 1.011719 13.230469 1 C 13.253906 1 13.285156 1.011719 13.320312 1.003906 C 13.320312 1.003906 13.320312 1.003906 13.328125 0.992188 C 13.339844 1.003906 13.351562 0.992188 13.351562 0.992188 C 13.351562 0.992188 13.363281 0.984375 13.375 0.996094 C 13.386719 0.984375 13.386719 0.984375 13.394531 0.972656 C 13.40625 0.960938 13.417969 0.953125 13.429688 0.941406 C 13.429688 0.941406 14.324219 0.105469 14.324219 0.105469 L 14.484375 -0.0429688 C 14.574219 -0.125 14.578125 -0.257812 14.492188 -0.347656 C 14.410156 -0.4375 14.277344 -0.445312 14.1875 -0.359375 L 14.027344 -0.210938 C 13.882812 -0.0742188 13.640625 -0.0820312 13.503906 -0.230469 C 13.449219 -0.285156 13.410156 -0.351562 13.410156 -0.417969 C 13.402344 -0.429688 13.402344 -0.429688 13.402344 -0.453125 C 13.195312 -1.46875 12.710938 -2.394531 12.035156 -3.140625 C 12.023438 -3.152344 12.023438 -3.152344 12.015625 -3.164062 C 11.972656 -3.207031 11.929688 -3.253906 11.898438 -3.289062 C 10.933594 -4.253906 9.617188 -4.867188 8.171875 -4.917969 C 5.128906 -5.019531 2.554688 -2.621094 2.453125 0.421875 C 2.414062 1.878906 2.925781 3.222656 3.824219 4.253906 C 3.867188 4.296875 3.898438 4.332031 3.941406 4.378906 C 3.949219 4.390625 3.949219 4.390625 3.960938 4.398438 C 4.660156 5.125 5.550781 5.671875 6.550781 5.945312 C 6.570312 5.949219 6.570312 5.949219 6.582031 5.957031 C 6.648438 5.960938 6.710938 6.007812 6.765625 6.0625 C 6.902344 6.210938 6.894531 6.453125 6.746094 6.589844 L 6.589844 6.738281 C 6.496094 6.820312 6.492188 6.953125 6.578125 7.042969 C 6.664062 7.132812 6.792969 7.140625 6.882812 7.054688 C 6.882812 7.054688 7.042969 6.90625 7.042969 6.90625 L 7.9375 6.070312 C 7.949219 6.058594 7.960938 6.050781 7.972656 6.039062 C 7.984375 6.027344 7.984375 6.027344 7.996094 6.019531 C 7.984375 6.007812 7.984375 6.007812 7.996094 5.996094 C 7.996094 5.996094 8.007812 5.984375 7.996094 5.972656 C 8.007812 5.964844 8.007812 5.964844 8.007812 5.964844 C 8.019531 5.929688 8.007812 5.898438 8.011719 5.875 C 8.023438 5.867188 8.011719 5.855469 8.011719 5.855469 C 8 5.84375 8.011719 5.832031 8 5.820312 C 8 5.820312 7.992188 5.808594 7.992188 5.808594 C 7.992188 5.808594 7.980469 5.796875 7.992188 5.789062 C 7.980469 5.777344 7.96875 5.765625 7.960938 5.753906 C 7.949219 5.742188 7.9375 5.730469 7.929688 5.71875 C 7.917969 5.730469 7.90625 5.71875 7.90625 5.71875 C 7.894531 5.707031 7.894531 5.707031 7.886719 5.695312 C 7.886719 5.695312 7.875 5.707031 7.863281 5.695312 C 7.863281 5.695312 7.851562 5.683594 7.839844 5.695312 C 7.832031 5.683594 7.808594 5.683594 7.808594 5.683594 C 6.351562 5.644531 5.058594 4.984375 4.171875 3.96875 C 3.121094 2.660156 3.851562 0.175781 5.835938 -1.675781 C 7.828125 -3.535156 10.359375 -4.097656 11.589844 -2.957031 Z M 13.496094 0.285156 C 13.484375 0.273438 13.484375 0.273438 13.484375 0.273438 C 13.484375 0.273438 13.484375 0.273438 13.496094 0.285156 Z M 7.269531 6.082031 C 7.269531 6.082031 7.269531 6.082031 7.28125 6.09375 C 7.269531 6.082031 7.269531 6.082031 7.269531 6.082031 Z M 5.539062 -2.015625 C 4.066406 -0.640625 3.261719 1.066406 3.257812 2.492188 C 3.007812 1.855469 2.867188 1.160156 2.902344 0.429688 C 2.984375 -2.363281 5.351562 -4.574219 8.144531 -4.46875 C 8.878906 -4.453125 9.5625 -4.265625 10.179688 -3.972656 C 8.757812 -4.0625 7 -3.378906 5.539062 -2.015625 Z M 5.539062 -2.015625 "/></g></g></g><g fill="#000000" fill-opacity="1"><g transform="translate(122.696031, 259.354862)"><g><path d="M 11.402344 -4.9375 C 9.003906 -6.828125 5.535156 -6.410156 3.652344 -4.027344 C 1.761719 -1.628906 2.15625 1.84375 4.554688 3.734375 C 6.949219 5.625 10.429688 5.21875 12.324219 2.820312 C 14.207031 0.4375 13.796875 -3.042969 11.402344 -4.9375 Z M 10.4375 1.332031 C 8.699219 3.535156 6.195312 4.457031 4.832031 3.382812 C 3.480469 2.316406 3.789062 -0.34375 5.527344 -2.546875 C 7.253906 -4.734375 9.773438 -5.648438 11.121094 -4.582031 C 12.484375 -3.507812 12.167969 -0.855469 10.4375 1.332031 Z M 3.992188 -3.757812 C 5.320312 -5.433594 7.519531 -6.046875 9.464844 -5.457031 C 8.042969 -5.335938 6.410156 -4.394531 5.171875 -2.824219 C 3.925781 -1.246094 3.386719 0.5625 3.597656 1.972656 C 2.574219 0.214844 2.660156 -2.066406 3.992188 -3.757812 Z M 6.492188 4.257812 C 7.910156 4.132812 9.542969 3.191406 10.78125 1.625 C 12.03125 0.0429688 12.566406 -1.761719 12.359375 -3.171875 C 13.378906 -1.417969 13.296875 0.863281 11.960938 2.554688 C 10.636719 4.234375 8.433594 4.84375 6.492188 4.257812 Z M 6.492188 4.257812 "/></g></g></g><g fill="#000000" fill-opacity="1"><g transform="translate(134.994327, 268.647925)"><g><path d="M 13.78125 -4.640625 L 12.527344 -5.351562 C 12.417969 -5.414062 12.285156 -5.367188 12.222656 -5.257812 C 12.164062 -5.152344 12.199219 -5.023438 12.304688 -4.960938 C 12.546875 -4.824219 12.621094 -4.515625 12.492188 -4.285156 L 9.542969 0.898438 C 8.5625 2.621094 6.363281 3.226562 4.640625 2.246094 C 3.777344 1.757812 3.875 -0.078125 4.839844 -1.773438 L 7.789062 -6.960938 C 7.921875 -7.1875 8.238281 -7.277344 8.464844 -7.144531 C 8.574219 -7.085938 8.714844 -7.113281 8.777344 -7.21875 C 8.835938 -7.328125 8.796875 -7.476562 8.6875 -7.535156 L 8.070312 -7.890625 C 8.070312 -7.890625 8.0625 -7.875 8.0625 -7.875 L 6.5 -8.765625 C 6.484375 -8.773438 6.492188 -8.785156 6.492188 -8.785156 L 5.875 -9.136719 C 5.765625 -9.199219 5.632812 -9.148438 5.570312 -9.042969 C 5.507812 -8.933594 5.542969 -8.808594 5.652344 -8.746094 C 5.894531 -8.609375 5.96875 -8.300781 5.835938 -8.070312 L 2.886719 -2.886719 C 1.785156 -0.945312 2.464844 1.527344 4.417969 2.636719 C 6.359375 3.742188 8.828125 3.0625 9.933594 1.121094 L 12.882812 -4.066406 C 13.011719 -4.292969 13.328125 -4.378906 13.558594 -4.25 C 13.664062 -4.1875 13.804688 -4.214844 13.867188 -4.324219 C 13.929688 -4.433594 13.886719 -4.578125 13.78125 -4.640625 Z M 3.277344 -2.664062 L 6.472656 -8.28125 L 7.660156 -7.605469 L 4.464844 -1.988281 C 3.757812 -0.75 3.484375 0.519531 3.65625 1.4375 C 2.710938 0.3125 2.511719 -1.316406 3.277344 -2.664062 Z M 3.277344 -2.664062 "/></g></g></g><g fill="#000000" fill-opacity="1"><g transform="translate(147.168868, 275.288541)"><g><path d="M 13.308594 -6.453125 L 11.96875 -6.976562 C 11.851562 -7.019531 11.726562 -6.953125 11.679688 -6.835938 C 11.636719 -6.722656 11.6875 -6.601562 11.804688 -6.554688 C 12.0625 -6.453125 12.183594 -6.160156 12.085938 -5.914062 C 12.085938 -5.914062 12.082031 -5.898438 12.082031 -5.898438 L 9.242188 1.375 L 7.28125 -8.6875 C 7.273438 -8.753906 7.210938 -8.8125 7.140625 -8.839844 C 7.140625 -8.839844 5.148438 -9.617188 5.148438 -9.617188 L 4.484375 -9.875 C 4.367188 -9.921875 4.25 -9.867188 4.203125 -9.753906 C 4.15625 -9.636719 4.210938 -9.519531 4.328125 -9.472656 C 4.472656 -9.417969 4.605469 -9.296875 4.726562 -9.132812 L 1.347656 -0.472656 C 1.253906 -0.226562 0.964844 -0.0898438 0.707031 -0.191406 C 0.589844 -0.234375 0.46875 -0.183594 0.425781 -0.0664062 C 0.378906 0.046875 0.425781 0.183594 0.542969 0.226562 L 1.886719 0.753906 C 2 0.796875 2.128906 0.730469 2.171875 0.613281 C 2.21875 0.5 2.164062 0.378906 2.046875 0.332031 C 1.789062 0.230469 1.671875 -0.0625 1.765625 -0.308594 L 5.003906 -8.609375 C 5.011719 -8.589844 5.023438 -8.570312 5.023438 -8.535156 L 7.207031 2.710938 C 7.230469 2.785156 7.269531 2.851562 7.34375 2.878906 L 8.683594 3.402344 C 8.800781 3.449219 8.941406 3.386719 8.984375 3.273438 L 12.503906 -5.75 C 12.605469 -6.011719 12.886719 -6.132812 13.148438 -6.03125 C 13.261719 -5.988281 13.382812 -6.039062 13.425781 -6.15625 C 13.472656 -6.269531 13.425781 -6.40625 13.308594 -6.453125 Z M 5.457031 -8.617188 L 5.453125 -8.652344 L 5.367188 -9.066406 L 6.867188 -8.480469 L 8.9375 2.15625 L 8.644531 2.90625 L 7.621094 2.507812 Z M 5.457031 -8.617188 "/></g></g></g><g fill="#000000" fill-opacity="1"><g transform="translate(160.537974, 280.198018)"><g><path d="M 8.96875 -8.589844 C 10.1875 -8.304688 10.953125 -7.074219 10.667969 -5.851562 C 10.640625 -5.734375 10.726562 -5.617188 10.847656 -5.589844 C 10.953125 -5.566406 11.078125 -5.628906 11.105469 -5.75 L 11.671875 -8.179688 C 11.699219 -8.300781 11.621094 -8.433594 11.515625 -8.457031 L 3.015625 -10.433594 C 2.894531 -10.460938 2.78125 -10.378906 2.753906 -10.257812 L 2.1875 -7.828125 C 2.160156 -7.707031 2.230469 -7.59375 2.351562 -7.566406 C 2.46875 -7.539062 2.582031 -7.609375 2.609375 -7.730469 C 2.894531 -8.953125 4.121094 -9.714844 5.34375 -9.429688 L 6.070312 -9.261719 L 3.921875 -0.0429688 C 3.863281 0.214844 3.585938 0.390625 3.3125 0.324219 C 3.207031 0.300781 3.082031 0.367188 3.050781 0.488281 C 3.023438 0.609375 3.109375 0.722656 3.214844 0.75 L 6.382812 1.484375 C 6.503906 1.515625 6.617188 1.445312 6.644531 1.324219 C 6.671875 1.203125 6.601562 1.089844 6.480469 1.0625 C 6.210938 1 6.050781 0.722656 6.113281 0.46875 L 8.257812 -8.753906 Z M 11.007812 -7.300781 C 10.878906 -7.648438 10.6875 -7.980469 10.414062 -8.25 L 11.183594 -8.070312 Z M 2.949219 -9.175781 L 3.125 -9.949219 L 3.894531 -9.769531 C 3.546875 -9.640625 3.214844 -9.433594 2.949219 -9.175781 Z M 5.5625 0.847656 L 4.234375 0.539062 L 6.492188 -9.164062 L 7.820312 -8.855469 Z M 5.5625 0.847656 "/></g></g></g><g fill="#000000" fill-opacity="1"><g transform="translate(173.736165, 283.050025)"><g><path d="M 5.957031 -2.492188 L 7.527344 0.53125 C 7.570312 0.59375 7.628906 0.632812 7.707031 0.636719 L 9.835938 0.8125 C 9.835938 0.8125 9.835938 0.828125 9.835938 0.828125 L 10.5625 0.890625 C 10.683594 0.898438 10.785156 0.800781 10.796875 0.675781 C 10.808594 0.550781 10.722656 0.453125 10.597656 0.441406 C 10.289062 0.414062 9.878906 0.117188 9.675781 -0.226562 L 8.265625 -2.921875 C 9.4375 -3.558594 10.234375 -4.734375 10.34375 -6.078125 C 10.519531 -8.210938 8.921875 -10.113281 6.792969 -10.304688 C 6.777344 -10.308594 6.761719 -10.324219 6.746094 -10.324219 C 6.746094 -10.324219 3.996094 -10.554688 3.996094 -10.554688 L 1.480469 -10.761719 C 1.355469 -10.769531 1.253906 -10.671875 1.246094 -10.546875 C 1.234375 -10.421875 1.320312 -10.324219 1.445312 -10.3125 C 1.722656 -10.289062 1.917969 -10.039062 1.898438 -9.777344 L 1.15625 -0.835938 C 1.136719 -0.574219 0.902344 -0.359375 0.621094 -0.382812 C 0.5 -0.394531 0.398438 -0.308594 0.386719 -0.183594 C 0.378906 -0.0625 0.464844 0.0390625 0.585938 0.046875 L 3.8125 0.316406 C 3.9375 0.324219 4.054688 0.242188 4.0625 0.117188 C 4.074219 -0.00390625 3.972656 -0.105469 3.851562 -0.117188 C 3.585938 -0.136719 3.375 -0.390625 3.398438 -0.652344 L 3.566406 -2.691406 Z M 6.46875 -2.464844 C 6.9375 -2.472656 7.410156 -2.574219 7.859375 -2.738281 L 9.257812 -0.0742188 C 9.253906 -0.0585938 9.269531 -0.0585938 9.269531 -0.0585938 L 9.472656 0.347656 L 7.863281 0.214844 Z M 9.898438 -6.117188 C 9.792969 -4.863281 9.015625 -3.746094 7.871094 -3.234375 C 7.691406 -3.15625 7.515625 -3.078125 7.339844 -3.03125 C 7.34375 -3.046875 7.359375 -3.0625 7.375 -3.074219 C 7.390625 -3.089844 7.410156 -3.117188 7.425781 -3.132812 C 7.445312 -3.148438 7.460938 -3.175781 7.476562 -3.191406 C 7.496094 -3.21875 7.511719 -3.234375 7.53125 -3.265625 C 7.550781 -3.292969 7.582031 -3.320312 7.601562 -3.367188 C 7.617188 -3.382812 7.636719 -3.394531 7.652344 -3.425781 C 7.671875 -3.453125 7.671875 -3.46875 7.691406 -3.5 C 7.707031 -3.527344 7.726562 -3.542969 7.742188 -3.574219 C 7.757812 -3.585938 7.761719 -3.601562 7.777344 -3.632812 C 8.191406 -4.3125 8.457031 -5.238281 8.539062 -6.226562 C 8.652344 -7.601562 8.378906 -8.820312 7.867188 -9.5625 C 9.167969 -8.972656 10.019531 -7.613281 9.898438 -6.117188 Z M 8.105469 -6.265625 C 8.027344 -5.335938 7.773438 -4.488281 7.394531 -3.867188 C 7.394531 -3.867188 7.394531 -3.867188 7.394531 -3.851562 C 7.03125 -3.242188 6.585938 -2.90625 6.164062 -2.925781 C 6.164062 -2.925781 6.148438 -2.925781 6.136719 -2.929688 L 6.105469 -2.929688 L 3.601562 -3.136719 L 4.175781 -10.085938 L 6.710938 -9.878906 C 6.726562 -9.875 6.742188 -9.875 6.742188 -9.875 C 6.742188 -9.875 6.742188 -9.875 6.757812 -9.875 C 7.632812 -9.753906 8.257812 -8.101562 8.105469 -6.265625 Z M 2.386719 -10.234375 L 3.746094 -10.121094 L 2.921875 -0.195312 L 1.566406 -0.304688 Z M 2.386719 -10.234375 "/></g></g></g><g fill="#000000" fill-opacity="1"><g transform="translate(188.548865, 284.00127)"><g><path d="M 6.65625 -2.945312 L 9.207031 -10.492188 C 9.304688 -10.828125 9.671875 -11.117188 9.984375 -11.140625 C 10.089844 -11.148438 10.191406 -11.246094 10.183594 -11.371094 C 10.175781 -11.496094 10.058594 -11.59375 9.949219 -11.585938 C 9.933594 -11.585938 9.222656 -11.535156 9.222656 -11.535156 L 8.511719 -11.484375 C 8.390625 -11.476562 8.289062 -11.359375 8.296875 -11.234375 C 8.308594 -11.113281 8.421875 -11.027344 8.546875 -11.035156 C 8.605469 -11.039062 8.714844 -11.03125 8.769531 -10.960938 C 8.820312 -10.886719 8.828125 -10.777344 8.773438 -10.648438 L 6.40625 -3.597656 L 3.042969 -10.222656 C 2.984375 -10.359375 2.976562 -10.464844 3.019531 -10.546875 C 3.058594 -10.628906 3.152344 -10.648438 3.230469 -10.65625 C 3.351562 -10.664062 3.4375 -10.761719 3.429688 -10.886719 C 3.421875 -11.011719 3.320312 -11.113281 3.195312 -11.101562 L 2.484375 -11.050781 L 0.523438 -10.910156 L -0.1875 -10.859375 C -0.3125 -10.851562 -0.398438 -10.738281 -0.386719 -10.613281 C -0.378906 -10.488281 -0.28125 -10.402344 -0.15625 -10.414062 C 0.152344 -10.433594 0.542969 -10.199219 0.707031 -9.882812 L 4.363281 -2.644531 L 4.460938 -1.25 C 4.480469 -0.972656 4.28125 -0.742188 4.003906 -0.722656 C 3.878906 -0.714844 3.792969 -0.613281 3.800781 -0.488281 C 3.8125 -0.367188 3.910156 -0.265625 4.035156 -0.273438 L 4.746094 -0.324219 C 4.746094 -0.324219 4.746094 -0.324219 4.761719 -0.324219 L 6.554688 -0.453125 L 7.265625 -0.503906 C 7.390625 -0.515625 7.488281 -0.628906 7.480469 -0.753906 C 7.472656 -0.878906 7.355469 -0.960938 7.234375 -0.953125 C 6.96875 -0.933594 6.722656 -1.148438 6.703125 -1.414062 L 6.601562 -2.804688 Z M 4.910156 -1.285156 C 4.910156 -1.285156 4.808594 -2.722656 4.808594 -2.722656 C 4.804688 -2.738281 4.804688 -2.753906 4.789062 -2.765625 C 4.789062 -2.765625 4.789062 -2.78125 4.785156 -2.796875 L 1.09375 -10.082031 L 0.894531 -10.488281 L 2.363281 -10.59375 L 6.203125 -2.992188 L 6.175781 -2.898438 C 6.160156 -2.894531 6.164062 -2.878906 6.164062 -2.863281 C 6.164062 -2.851562 6.167969 -2.835938 6.167969 -2.820312 L 6.304688 -0.886719 L 4.945312 -0.789062 Z M 4.910156 -1.285156 "/></g></g></g><g fill="#000000" fill-opacity="1"><g transform="translate(203.308762, 282.550005)"><g/></g></g><g fill="#000000" fill-opacity="1"><g transform="translate(212.144846, 280.7394)"><g><path d="M 2.25 -11.75 C 3.523438 -12.191406 4.96875 -12.152344 6.261719 -11.480469 C 6.261719 -11.480469 6.28125 -11.46875 6.292969 -11.472656 C 6.300781 -11.460938 6.3125 -11.464844 6.3125 -11.464844 C 6.328125 -11.46875 6.332031 -11.453125 6.332031 -11.453125 C 6.347656 -11.460938 6.347656 -11.460938 6.363281 -11.464844 C 6.363281 -11.464844 6.378906 -11.46875 6.382812 -11.453125 C 6.398438 -11.457031 6.410156 -11.464844 6.425781 -11.46875 C 6.441406 -11.472656 6.457031 -11.476562 6.472656 -11.484375 C 6.464844 -11.496094 6.480469 -11.503906 6.480469 -11.503906 C 6.480469 -11.503906 6.496094 -11.507812 6.496094 -11.507812 C 6.511719 -11.511719 6.503906 -11.527344 6.519531 -11.53125 C 6.519531 -11.53125 6.535156 -11.535156 6.53125 -11.550781 C 6.539062 -11.570312 6.566406 -11.59375 6.570312 -11.628906 C 6.570312 -11.628906 6.570312 -11.628906 6.566406 -11.644531 C 6.582031 -11.648438 6.574219 -11.664062 6.574219 -11.664062 C 6.574219 -11.664062 6.570312 -11.675781 6.585938 -11.683594 C 6.582031 -11.695312 6.582031 -11.695312 6.578125 -11.710938 C 6.570312 -11.726562 6.566406 -11.742188 6.5625 -11.757812 C 6.5625 -11.757812 6.1875 -12.921875 6.1875 -12.921875 L 6.121094 -13.128906 C 6.082031 -13.246094 5.964844 -13.304688 5.847656 -13.265625 C 5.726562 -13.230469 5.667969 -13.113281 5.707031 -12.996094 L 5.773438 -12.789062 C 5.835938 -12.597656 5.726562 -12.382812 5.535156 -12.320312 C 5.460938 -12.296875 5.382812 -12.285156 5.324219 -12.316406 C 5.308594 -12.3125 5.308594 -12.3125 5.289062 -12.320312 C 4.28125 -12.566406 3.238281 -12.523438 2.273438 -12.230469 C 2.257812 -12.222656 2.257812 -12.222656 2.246094 -12.21875 C 2.183594 -12.199219 2.125 -12.179688 2.082031 -12.167969 C 0.796875 -11.703125 -0.316406 -10.773438 -0.976562 -9.488281 C -2.363281 -6.773438 -1.285156 -3.429688 1.425781 -2.039062 C 2.726562 -1.386719 4.164062 -1.277344 5.476562 -1.652344 C 5.535156 -1.671875 5.578125 -1.6875 5.636719 -1.703125 C 5.652344 -1.710938 5.652344 -1.710938 5.667969 -1.714844 C 6.621094 -2.039062 7.492188 -2.613281 8.167969 -3.402344 C 8.175781 -3.421875 8.175781 -3.421875 8.191406 -3.425781 C 8.222656 -3.484375 8.289062 -3.523438 8.363281 -3.546875 C 8.554688 -3.605469 8.769531 -3.496094 8.832031 -3.304688 L 8.898438 -3.097656 C 8.9375 -2.980469 9.054688 -2.921875 9.171875 -2.960938 C 9.289062 -2.996094 9.351562 -3.113281 9.3125 -3.234375 C 9.3125 -3.234375 9.246094 -3.4375 9.246094 -3.4375 L 8.871094 -4.605469 C 8.863281 -4.617188 8.859375 -4.632812 8.855469 -4.648438 C 8.851562 -4.664062 8.851562 -4.664062 8.847656 -4.679688 C 8.832031 -4.671875 8.832031 -4.671875 8.828125 -4.6875 C 8.828125 -4.6875 8.820312 -4.703125 8.808594 -4.699219 C 8.800781 -4.710938 8.800781 -4.710938 8.800781 -4.710938 C 8.777344 -4.738281 8.742188 -4.742188 8.722656 -4.753906 C 8.71875 -4.765625 8.703125 -4.761719 8.703125 -4.761719 C 8.691406 -4.757812 8.683594 -4.773438 8.671875 -4.769531 C 8.671875 -4.769531 8.65625 -4.761719 8.65625 -4.761719 C 8.65625 -4.761719 8.640625 -4.757812 8.636719 -4.773438 C 8.621094 -4.769531 8.605469 -4.761719 8.589844 -4.757812 C 8.578125 -4.753906 8.5625 -4.75 8.546875 -4.746094 C 8.550781 -4.730469 8.539062 -4.726562 8.539062 -4.726562 C 8.523438 -4.71875 8.523438 -4.71875 8.507812 -4.714844 C 8.507812 -4.714844 8.511719 -4.699219 8.5 -4.695312 C 8.5 -4.695312 8.484375 -4.691406 8.488281 -4.675781 C 8.472656 -4.671875 8.464844 -4.652344 8.464844 -4.652344 C 7.808594 -3.351562 6.664062 -2.460938 5.367188 -2.089844 C 3.734375 -1.695312 1.796875 -3.414062 0.964844 -5.992188 C 0.125 -8.589844 0.695312 -11.117188 2.25 -11.75 Z M 5.996094 -12.09375 C 5.980469 -12.089844 5.980469 -12.089844 5.980469 -12.089844 C 5.980469 -12.089844 5.980469 -12.089844 5.996094 -12.09375 Z M 8.59375 -3.992188 C 8.59375 -3.992188 8.59375 -3.992188 8.609375 -4 C 8.59375 -3.992188 8.59375 -3.992188 8.59375 -3.992188 Z M 0.53125 -5.871094 C 1.152344 -3.953125 2.351562 -2.5 3.640625 -1.890625 C 2.957031 -1.929688 2.269531 -2.101562 1.621094 -2.445312 C -0.871094 -3.707031 -1.867188 -6.789062 -0.582031 -9.273438 C -0.257812 -9.929688 0.203125 -10.46875 0.730469 -10.902344 C 0.0429688 -9.652344 -0.0820312 -7.773438 0.53125 -5.871094 Z M 0.53125 -5.871094 "/></g></g></g><g fill="#000000" fill-opacity="1"><g transform="translate(225.166162, 276.245961)"><g><path d="M 6.433594 -6.351562 C 6.324219 -6.296875 6.28125 -6.171875 6.332031 -6.0625 C 6.878906 -4.929688 6.402344 -3.566406 5.269531 -3.019531 L 2.8125 -1.835938 L -1.296875 -10.367188 C -1.410156 -10.601562 -1.300781 -10.914062 -1.0625 -11.027344 C -0.953125 -11.082031 -0.894531 -11.210938 -0.949219 -11.324219 C -1.003906 -11.4375 -1.148438 -11.488281 -1.257812 -11.433594 L -4.175781 -10.027344 C -4.289062 -9.972656 -4.324219 -9.835938 -4.269531 -9.722656 C -4.21875 -9.613281 -4.09375 -9.570312 -3.980469 -9.621094 C -3.730469 -9.742188 -3.433594 -9.628906 -3.320312 -9.390625 L 0.574219 -1.308594 C 0.6875 -1.070312 0.59375 -0.765625 0.34375 -0.644531 C 0.230469 -0.59375 0.1875 -0.46875 0.242188 -0.355469 C 0.292969 -0.246094 0.425781 -0.1875 0.539062 -0.242188 L 7.710938 -3.699219 C 7.824219 -3.75 7.859375 -3.890625 7.808594 -4 L 6.722656 -6.25 C 6.671875 -6.359375 6.546875 -6.402344 6.433594 -6.351562 Z M 6.980469 -4.71875 L 7.320312 -4.007812 L 6.609375 -3.664062 C 6.800781 -3.980469 6.917969 -4.347656 6.980469 -4.71875 Z M -3.128906 -10.03125 L -1.914062 -10.617188 L 2.410156 -1.640625 L 1.195312 -1.054688 Z M -3.128906 -10.03125 "/></g></g></g><g fill="#000000" fill-opacity="1"><g transform="translate(236.527739, 270.545824)"><g><path d="M 2.070312 -14.390625 L 0.871094 -13.59375 C 0.765625 -13.527344 0.75 -13.386719 0.816406 -13.28125 C 0.886719 -13.179688 1.015625 -13.152344 1.117188 -13.222656 C 1.351562 -13.375 1.660156 -13.300781 1.804688 -13.082031 L 5.105469 -8.113281 C 6.203125 -6.460938 5.75 -4.226562 4.097656 -3.128906 C 3.273438 -2.582031 1.679688 -3.496094 0.597656 -5.121094 L -2.699219 -10.09375 C -2.84375 -10.3125 -2.78125 -10.632812 -2.558594 -10.777344 C -2.457031 -10.847656 -2.417969 -10.984375 -2.488281 -11.089844 C -2.554688 -11.191406 -2.707031 -11.222656 -2.808594 -11.152344 L -3.402344 -10.757812 C -3.402344 -10.757812 -3.394531 -10.746094 -3.394531 -10.746094 L -4.890625 -9.753906 C -4.90625 -9.742188 -4.914062 -9.757812 -4.914062 -9.757812 L -5.507812 -9.363281 C -5.609375 -9.292969 -5.628906 -9.152344 -5.558594 -9.050781 C -5.492188 -8.945312 -5.363281 -8.921875 -5.257812 -8.988281 C -5.027344 -9.144531 -4.71875 -9.070312 -4.570312 -8.847656 L -1.273438 -3.878906 C -0.0390625 -2.019531 2.472656 -1.511719 4.347656 -2.753906 C 6.207031 -3.988281 6.714844 -6.5 5.480469 -8.359375 L 2.179688 -13.332031 C 2.035156 -13.550781 2.101562 -13.871094 2.320312 -14.019531 C 2.421875 -14.085938 2.460938 -14.222656 2.394531 -14.328125 C 2.324219 -14.429688 2.175781 -14.460938 2.070312 -14.390625 Z M -0.898438 -4.128906 L -4.472656 -9.511719 L -3.335938 -10.265625 L 0.238281 -4.882812 C 1.027344 -3.695312 2.035156 -2.875 2.933594 -2.617188 C 1.5 -2.277344 -0.0429688 -2.835938 -0.898438 -4.128906 Z M -0.898438 -4.128906 "/></g></g></g><g fill="#000000" fill-opacity="1"><g transform="translate(247.923799, 262.671455)"><g><path d="M 5.398438 -8.589844 C 4.539062 -9.550781 3.183594 -9.792969 2.066406 -9.253906 C 2.417969 -10.210938 2.25 -11.308594 1.539062 -12.105469 C 0.496094 -13.273438 -1.289062 -13.363281 -2.445312 -12.332031 C -2.453125 -12.34375 -2.453125 -12.34375 -2.453125 -12.34375 L -4.894531 -10.167969 C -4.894531 -10.167969 -4.894531 -10.167969 -4.894531 -10.144531 L -6.769531 -8.476562 C -6.863281 -8.394531 -6.871094 -8.261719 -6.785156 -8.167969 C -6.703125 -8.078125 -6.574219 -8.070312 -6.480469 -8.152344 C -6.273438 -8.335938 -5.957031 -8.308594 -5.78125 -8.113281 L 0.191406 -1.414062 C 0.367188 -1.21875 0.359375 -0.902344 0.152344 -0.714844 C 0.0585938 -0.632812 0.0507812 -0.5 0.132812 -0.410156 C 0.214844 -0.316406 0.355469 -0.296875 0.449219 -0.378906 L 2.335938 -2.0625 L 5.179688 -4.597656 C 6.335938 -5.652344 6.4375 -7.421875 5.398438 -8.589844 Z M 3.71875 -7.097656 C 4.773438 -5.917969 5.007812 -5.046875 4.878906 -4.933594 L 2.199219 -2.542969 L -0.96875 -6.089844 L 1.296875 -8.113281 C 1.296875 -8.113281 1.296875 -8.113281 1.308594 -8.125 C 1.308594 -8.125 1.308594 -8.125 1.320312 -8.132812 L 1.714844 -8.484375 C 1.839844 -8.597656 2.679688 -8.265625 3.71875 -7.097656 Z M -2.167969 -12 C -2.15625 -12.007812 -2.15625 -12.007812 -2.15625 -12.007812 C -2.019531 -12.109375 -1.191406 -11.765625 -0.152344 -10.597656 C 0.890625 -9.429688 1.136719 -8.570312 1.011719 -8.457031 L -1.011719 -6.652344 L -1.269531 -6.425781 L -4.433594 -9.976562 Z M 1.203125 -11.804688 C 1.921875 -10.996094 1.988281 -9.808594 1.421875 -8.929688 C 1.246094 -9.519531 0.75 -10.261719 0.183594 -10.898438 C -0.382812 -11.535156 -1.074219 -12.121094 -1.632812 -12.351562 C -0.695312 -12.8125 0.46875 -12.625 1.203125 -11.804688 Z M -5.773438 -8.78125 L -4.769531 -9.679688 L 1.863281 -2.242188 L 0.855469 -1.34375 Z M 5.292969 -5.425781 C 5.128906 -6.007812 4.621094 -6.757812 4.054688 -7.394531 C 3.488281 -8.03125 2.808594 -8.609375 2.238281 -8.847656 C 3.175781 -9.3125 4.351562 -9.113281 5.074219 -8.304688 C 5.804688 -7.480469 5.859375 -6.304688 5.292969 -5.425781 Z M 5.292969 -5.425781 "/></g></g></g><g fill="#000000" fill-opacity="1"><g transform="translate(257.830468, 253.389706)"><g/></g></g><path stroke-linecap="butt" transform="matrix(1.47839, 0, 0, 1.5, 241.349607, 185.249988)" fill="none" stroke-linejoin="miter" d="M -0.00131954 0.00000810983 L 15.733171 0.00000810983 " stroke="#000000" stroke-width="1" stroke-opacity="1" stroke-miterlimit="4"/><path stroke-linecap="butt" transform="matrix(1.47839, 0, 0, 1.5, 267.92823, 186.749988)" fill="none" stroke-linejoin="miter" d="M 0.000985798 0.0000081755 L 15.732834 0.0000081755 " stroke="#000000" stroke-width="1" stroke-opacity="1" stroke-miterlimit="4"/><g clip-path="url(#id1)"><g clip-path="url(#id2)"><g clip-path="url(#id3)"><path fill="#000000" d="M 176.449219 158.359375 C 176.367188 158.449219 176.320312 158.550781 176.3125 158.671875 C 176.300781 158.792969 176.332031 158.902344 176.402344 159 C 177.519531 160.617188 177.894531 162.089844 178.433594 164.125 C 179.023438 166.464844 179.769531 168.753906 180.667969 170.992188 C 183.445312 177.839844 190.757812 179.660156 201.605469 181.65625 C 212.246094 183.613281 222.535156 189.023438 223.082031 189.328125 C 223.472656 189.605469 227.199219 192.195312 234.546875 194.824219 C 230.007812 194.179688 225.445312 193.933594 220.863281 194.082031 C 216.605469 192.933594 211.730469 190.976562 206.554688 188.894531 C 193.421875 183.609375 177.066406 177.035156 158.957031 178.863281 C 133.949219 181.375 109.785156 198.859375 109.539062 199.023438 C 109.324219 199.179688 109.265625 199.382812 109.367188 199.628906 C 109.441406 199.878906 109.609375 200 109.871094 199.992188 C 118.738281 199.75 126.761719 202.195312 134.527344 204.554688 C 146.621094 208.210938 158.066406 211.683594 171.496094 205.070312 C 193.070312 194.417969 220.53125 195.125 220.800781 195.117188 C 220.800781 195.117188 220.800781 195.117188 220.824219 195.105469 C 220.847656 195.097656 229.542969 194.515625 242.542969 197.21875 C 255.542969 199.917969 270.070312 206.429688 270.214844 206.5 C 270.339844 206.558594 270.46875 206.566406 270.601562 206.519531 C 270.734375 206.46875 270.832031 206.382812 270.890625 206.257812 C 270.945312 206.132812 270.953125 206.003906 270.90625 205.875 C 270.859375 205.742188 270.769531 205.640625 270.636719 205.582031 C 270.546875 205.542969 264.960938 203.023438 257.609375 200.476562 C 255.878906 198.390625 253.816406 196.722656 251.414062 195.46875 C 251.386719 195.445312 251.351562 195.421875 251.320312 195.402344 C 250.667969 195.09375 250.015625 194.78125 249.445312 194.445312 C 243.320312 190.9375 242.59375 186.492188 241.582031 180.039062 C 241.316406 178.332031 241.035156 176.570312 240.636719 174.636719 L 240.527344 174.101562 C 238.523438 164.449219 237.777344 160.835938 225.214844 157.742188 C 217.460938 155.882812 209.664062 155.691406 201.832031 157.171875 C 201.609375 157.226562 201.484375 157.367188 201.449219 157.59375 C 201.414062 157.820312 201.496094 157.992188 201.691406 158.109375 C 203.175781 158.976562 205.765625 162.660156 208.761719 166.933594 C 212.519531 172.289062 216.773438 178.351562 220.964844 182.066406 C 225.371094 185.96875 227.910156 186.636719 230.855469 187.425781 C 233.3125 188.003906 235.648438 188.902344 237.855469 190.132812 C 242.445312 192.671875 248.976562 195.5 250.570312 196.195312 C 252.445312 197.121094 254.132812 198.308594 255.636719 199.765625 C 251.429688 198.335938 247.152344 197.152344 242.808594 196.214844 L 241.90625 196.035156 C 230.574219 193.035156 224.578125 189.09375 223.773438 188.542969 L 223.589844 188.191406 L 223.5625 188.109375 C 216.84375 175.390625 203.546875 165.683594 195.914062 165.445312 C 188.542969 165.214844 177.242188 158.359375 177.117188 158.289062 C 177.011719 158.214844 176.894531 158.1875 176.769531 158.199219 C 176.640625 158.210938 176.535156 158.265625 176.449219 158.359375 Z M 238.324219 189.234375 C 236.042969 187.96875 233.632812 187.035156 231.09375 186.433594 C 228.273438 185.6875 225.851562 185.054688 221.617188 181.296875 C 217.511719 177.664062 213.109375 171.386719 209.574219 166.347656 C 206.933594 162.582031 204.75 159.46875 203.125 157.953125 C 210.449219 156.757812 217.726562 157.015625 224.953125 158.734375 C 236.882812 161.671875 237.492188 164.597656 239.503906 174.304688 L 239.617188 174.839844 C 240.011719 176.75 240.285156 178.5 240.550781 180.191406 C 240.984375 182.921875 241.363281 185.367188 242.148438 187.558594 C 242.429688 188.355469 242.777344 189.121094 243.191406 189.855469 C 242.632812 189.164062 242.117188 188.445312 241.644531 187.695312 C 239.808594 184.632812 237.773438 181.710938 235.53125 178.933594 C 233.289062 176.140625 230.773438 173.621094 227.992188 171.371094 C 225.195312 169.160156 222.230469 167.207031 219.09375 165.519531 C 222.183594 167.28125 225.097656 169.296875 227.835938 171.570312 C 230.542969 173.875 232.976562 176.441406 235.136719 179.269531 C 237.300781 182.082031 239.261719 185.03125 241.011719 188.117188 C 241.894531 189.601562 242.9375 190.957031 244.148438 192.1875 C 242.171875 191.246094 240.105469 190.222656 238.324219 189.234375 Z M 171.066406 204.140625 C 157.960938 210.597656 146.710938 207.175781 134.808594 203.546875 C 127.453125 201.296875 119.863281 198.996094 111.503906 198.925781 C 116.910156 195.257812 137.699219 182.03125 159.070312 179.878906 C 176.902344 178.085938 193.144531 184.597656 206.183594 189.835938 C 209.632812 191.222656 212.957031 192.554688 216.066406 193.636719 C 210.265625 192.628906 204.453125 191.769531 198.628906 191.0625 C 195.292969 190.65625 191.953125 190.304688 188.609375 190.007812 C 186.929688 189.851562 185.261719 189.722656 183.59375 189.597656 C 182.753906 189.523438 181.910156 189.507812 181.070312 189.464844 C 180.234375 189.421875 179.410156 189.359375 178.550781 189.378906 C 171.816406 189.351562 165.117188 189.78125 158.445312 190.675781 C 155.128906 191.078125 151.8125 191.566406 148.488281 192.140625 C 145.183594 192.707031 141.875 193.324219 138.609375 194.050781 C 141.894531 193.367188 145.191406 192.777344 148.511719 192.269531 C 151.832031 191.761719 155.148438 191.296875 158.476562 190.921875 C 165.140625 190.121094 171.824219 189.777344 178.535156 189.894531 C 179.371094 189.890625 180.183594 189.972656 181.039062 190.007812 C 181.890625 190.046875 182.691406 190.09375 183.550781 190.195312 C 185.226562 190.339844 186.902344 190.488281 188.558594 190.664062 C 191.894531 191.011719 195.222656 191.402344 198.542969 191.847656 C 203.660156 192.539062 208.757812 193.332031 213.824219 194.246094 C 204.140625 194.714844 186.167969 196.664062 171.066406 204.140625 Z M 195.863281 166.453125 C 202.707031 166.664062 214.355469 174.898438 221.207031 186.058594 C 219.449219 184.585938 217.671875 183.148438 215.875 181.742188 C 213.292969 179.714844 210.589844 177.867188 207.761719 176.199219 C 206.328125 175.386719 204.828125 174.726562 203.265625 174.214844 C 201.714844 173.683594 200.136719 173.238281 198.558594 172.832031 C 196.980469 172.425781 195.390625 172.0625 193.796875 171.632812 C 192.210938 171.238281 190.695312 170.65625 189.25 169.886719 C 190.675781 170.691406 192.179688 171.316406 193.761719 171.753906 C 195.324219 172.230469 196.902344 172.636719 198.472656 173.085938 C 200.039062 173.535156 201.589844 174.015625 203.113281 174.582031 C 204.644531 175.125 206.101562 175.8125 207.492188 176.648438 C 210.234375 178.367188 212.855469 180.261719 215.347656 182.328125 C 217.253906 183.871094 219.125 185.46875 220.953125 187.105469 C 217.113281 185.289062 209.546875 182.054688 201.785156 180.625 C 191.269531 178.691406 184.183594 176.949219 181.605469 170.585938 C 181.328125 169.898438 181.085938 169.25 180.871094 168.644531 C 180.167969 166.683594 179.757812 165.140625 179.414062 163.835938 C 179.113281 162.550781 178.707031 161.296875 178.191406 160.082031 C 181.660156 162.050781 189.839844 166.273438 195.835938 166.453125 Z M 195.863281 166.453125 " fill-opacity="1" fill-rule="nonzero"/></g></g></g></svg>